<?xml version="1.0" encoding="UTF-8" standalone="no"?>
<!-- Created with Inkscape (http://www.inkscape.org/) -->

<svg
   width="7.6187439mm"
   height="13.229172mm"
   viewBox="0 0 7.6187439 13.229172"
   version="1.1"
   id="svg5"
   inkscape:version="1.2.2 (b0a8486541, 2022-12-01)"
   sodipodi:docname="Logotipo.svg"
   xmlns:inkscape="http://www.inkscape.org/namespaces/inkscape"
   xmlns:sodipodi="http://sodipodi.sourceforge.net/DTD/sodipodi-0.dtd"
   xmlns="http://www.w3.org/2000/svg"
   xmlns:svg="http://www.w3.org/2000/svg">
  <sodipodi:namedview
     id="namedview7"
     pagecolor="#ffffff"
     bordercolor="#666666"
     borderopacity="1.0"
     inkscape:pageshadow="2"
     inkscape:pageopacity="0.0"
     inkscape:pagecheckerboard="0"
     inkscape:document-units="mm"
     showgrid="false"
     inkscape:zoom="1"
     inkscape:cx="391.5"
     inkscape:cy="671.5"
     inkscape:window-width="1920"
     inkscape:window-height="1027"
     inkscape:window-x="0"
     inkscape:window-y="0"
     inkscape:window-maximized="1"
     inkscape:current-layer="layer1"
     inkscape:showpageshadow="2"
     inkscape:deskcolor="#d1d1d1" />
  <defs
     id="defs2" />
  <g
     inkscape:label="Camada 1"
     inkscape:groupmode="layer"
     id="layer1"
     transform="translate(-36.200848,-161.64137)">
    <g
       id="g2381"
       inkscape:export-filename="../../../../Jogos Criados Godot/araci/n_assets/n_cuts/final/logoUfalVT.svg"
       inkscape:export-xdpi="800"
       inkscape:export-ydpi="800"
       transform="matrix(2.6185813,0,0,2.6185813,-301.4703,-246.31967)">
      <path
         class="st0"
         d="m 130.81033,156.52962 c -0.0173,-0.095 -0.072,-0.17603 -0.11961,-0.25832 -0.0475,-0.082 -0.0908,-0.16682 -0.11297,-0.25941 -0.0135,-0.0565 -0.0193,-0.11509 -0.0281,-0.17237 -0.0351,0.0457 -0.0309,0.10735 -0.0343,0.16201 -0.002,0.0322 -0.004,0.0644 -0.007,0.0966 -0.0345,-0.0372 -0.0441,-0.0963 -0.0536,-0.14474 -0.0118,-0.0595 -0.0217,-0.10936 -0.0607,-0.15871 -0.006,0.0754 -0.008,0.14791 -0.0395,0.21806 -0.0296,0.0665 -0.0764,0.12412 -0.12534,0.17731 -0.0859,0.0934 -0.23489,0.19976 -0.23191,0.34047 0.002,0.0886 0.0687,0.15541 0.1287,0.21238 h 0.5803 c 0.0667,-0.0591 0.11101,-0.12071 0.10376,-0.21329"
         id="path1230"
         style="stroke-width:0.00609944" />
      <path
         class="st1"
         d="m 130.52231,156.12974 v 0 c -0.004,0.0835 -0.0123,0.16523 -0.0404,0.24257 -0.009,0.0287 -0.0355,0.0841 -0.063,0.11638 -0.0281,0.0345 -0.0627,0.0606 -0.10546,0.0762 -0.0315,0.009 -0.0601,0.0119 -0.085,0.005 -0.0121,-0.003 -0.0234,-0.0101 -0.0309,-0.0203 -0.0119,-0.0161 -0.0162,-0.0376 -0.0113,-0.0668 0.006,-0.0255 0.0287,-0.0379 0.0534,-0.0281 0.0186,0.007 0.0378,0.0126 0.0574,0.0165 0.0417,0.008 0.079,5.5e-4 0.11174,-0.0237 0,0 0.0265,-0.0195 0.0507,-0.0687 0.0127,-0.025 0.0227,-0.0515 0.0292,-0.0789 0.0133,-0.0562 0.0204,-0.11491 0.0267,-0.17329 -0.0833,-0.0596 -0.0709,-0.23239 -0.11077,-0.28911 0.0242,0.42891 -0.65837,0.54602 -0.27161,0.88875 h 0.56737 c 0.28357,-0.23251 -0.15608,-0.43538 -0.15529,-0.84953 -0.01,0.008 -0.0127,0.16273 -0.0228,0.25307"
         id="path1232"
         style="stroke-width:0.00609944" />
      <path
         class="st0"
         d="m 131.62106,156.52962 c -0.0173,-0.095 -0.072,-0.17603 -0.11961,-0.25832 -0.0474,-0.082 -0.0908,-0.16682 -0.11296,-0.25941 -0.0135,-0.0565 -0.0193,-0.11509 -0.0281,-0.17237 -0.0351,0.0457 -0.0309,0.10735 -0.0343,0.16201 -0.002,0.0322 -0.004,0.0644 -0.007,0.0966 -0.0345,-0.0372 -0.0441,-0.0963 -0.0536,-0.14474 -0.0118,-0.0595 -0.0217,-0.10936 -0.0607,-0.15871 -0.006,0.0754 -0.008,0.14791 -0.0395,0.21806 -0.0296,0.0665 -0.0764,0.12412 -0.12535,0.17731 -0.0859,0.0934 -0.23489,0.19976 -0.2319,0.34047 0.002,0.0886 0.0687,0.15541 0.1287,0.21238 h 0.5803 c 0.0667,-0.0591 0.11101,-0.12071 0.10375,-0.21329"
         id="path1234"
         style="stroke-width:0.00609944" />
      <path
         class="st1"
         d="m 131.33305,156.12974 v 0 c -0.004,0.0835 -0.0123,0.16523 -0.0404,0.24257 -0.009,0.0287 -0.0355,0.0841 -0.063,0.11638 -0.0281,0.0345 -0.0627,0.0606 -0.10546,0.0762 -0.0315,0.009 -0.0601,0.0119 -0.085,0.005 -0.0121,-0.003 -0.0234,-0.0101 -0.0309,-0.0203 -0.012,-0.0161 -0.0162,-0.0376 -0.0113,-0.0668 0.006,-0.0255 0.0287,-0.0379 0.0534,-0.0281 0.0186,0.007 0.0378,0.0126 0.0574,0.0165 0.0417,0.008 0.079,5.5e-4 0.11174,-0.0237 0,0 0.0265,-0.0195 0.0507,-0.0687 0.0128,-0.025 0.0227,-0.0515 0.0292,-0.0789 0.0133,-0.0562 0.0204,-0.11491 0.0267,-0.17329 -0.0832,-0.0596 -0.0709,-0.23239 -0.11076,-0.28911 0.0242,0.42891 -0.65838,0.54602 -0.27161,0.88875 h 0.56737 c 0.28356,-0.23251 -0.15608,-0.43538 -0.15529,-0.84953 -0.01,0.008 -0.0126,0.16273 -0.0228,0.25307"
         id="path1236"
         style="stroke-width:0.00609944" />
      <path
         class="st2"
         d="m 131.48065,157.11602 -0.16767,3.65491 c -0.0386,0.0944 -0.0801,0.10112 -0.12656,0.0173 l -0.22092,-3.6723 h 0.51515 z"
         id="path1240"
         style="stroke-width:0.00609944" />
      <path
         class="st2"
         d="m 130.67681,157.11602 -0.16768,3.65491 c -0.0386,0.0944 -0.0801,0.10112 -0.12656,0.0173 l -0.22092,-3.6723 h 0.51516 z"
         id="path1242"
         style="stroke-width:0.00609944" />
      <path
         class="st2"
         d="m 129.86955,157.11602 -0.16768,3.65491 c -0.0386,0.0944 -0.08,0.10112 -0.12656,0.0173 l -0.22092,-3.6723 h 0.51516 z"
         id="path1244"
         style="stroke-width:0.00609944" />
      <polygon
         class="st3"
         points="390.75,900.44 393.4,899.66 396.04,898.87 398.71,898.03 403.4,896.5 400.21,855.06 392.83,853.43 387.46,852.49 382.18,851.8 377.02,851.32 371.96,851.06 367.04,851 362.25,851.13 357.59,851.41 353.11,851.85 348.77,852.44 344.62,853.14 340.65,853.95 336.86,854.86 333.27,855.85 329.9,856.9 318.9,860.77 330.18,864.19 333.37,865.24 336.5,866.36 339.55,867.53 342.54,868.78 345.47,870.09 348.34,871.46 351.16,872.9 353.94,874.41 356.65,876 359.33,877.66 361.97,879.4 364.59,881.22 367.15,883.11 369.7,885.09 370.76,885.96 370.42,886.91 369.25,889.45 367.83,891.97 366.12,894.55 364.11,897.29 361.77,900.24 359.1,903.47 348.22,916.45 362,910.06 364.62,908.93 367.25,907.87 369.85,906.89 372.46,905.97 375.06,905.1 377.67,904.28 380.27,903.49 382.88,902.72 385.49,901.96 388.12,901.2 "
         id="polygon1246"
         transform="matrix(0.00609944,0,0,0.00609944,127.07179,154.55797)" />
      <path
         class="st4"
         d="m 129.49718,159.78696 c -0.17506,-0.0424 -0.33041,-0.0156 -0.42672,0.0201 0.10936,0.032 0.19915,0.0795 0.28228,0.14938 -0.0146,0.0483 -0.0445,0.0832 -0.0963,0.14492 0.0883,-0.0424 0.17219,-0.0579 0.25825,-0.0869 z"
         id="path1248"
         style="stroke-width:0.00609944" />
      <polygon
         class="st2"
         points="724.38,415.93 633.76,415.93 626.9,410.92 625.57,402.08 734.7,402.08 732.12,410.25 724.38,416.29 "
         id="polygon1250"
         transform="matrix(0.00609944,0,0,0.00609944,127.07179,154.55797)" />
      <polygon
         class="st2"
         points="621.55,397.39 618.9,394.44 618.93,381.82 619.98,380.92 739.92,380.92 740.34,381.36 740.29,394.67 738.15,397.39 "
         id="polygon1252"
         transform="matrix(0.00609944,0,0,0.00609944,127.07179,154.55797)" />
      <polygon
         class="st2"
         points="626.3,360.52 733.4,360.52 735.88,376.23 624.42,376.23 "
         id="polygon1254"
         transform="matrix(0.00609944,0,0,0.00609944,127.07179,154.55797)" />
      <polygon
         class="st2"
         points="489.76,397.39 487.11,394.44 487.14,381.82 488.19,380.92 608.13,380.92 608.55,381.36 608.5,394.67 606.36,397.39 "
         id="polygon1256"
         transform="matrix(0.00609944,0,0,0.00609944,127.07179,154.55797)" />
      <polygon
         class="st2"
         points="494.51,360.52 601.61,360.52 604.08,376.23 492.62,376.23 "
         id="polygon1258"
         transform="matrix(0.00609944,0,0,0.00609944,127.07179,154.55797)" />
      <path
         class="st5"
         d="m 130.54842,157.18622 -0.0299,0.79165 -0.0299,0.79158 c -1.8e-4,0.0249 0.0346,0.0288 0.0367,-0.003 l 0.10198,-1.57939 c -0.008,-0.0383 -0.0576,-0.0414 -0.0789,-3.7e-4"
         id="path1260"
         style="stroke-width:0.00609944" />
      <path
         class="st5"
         d="m 130.37995,157.20854 0.0324,0.74499 0.0325,0.74505 c 0.002,0.0234 0.0312,0.0241 0.0306,-0.006 l -0.0292,-1.48998 c -0.009,-0.0352 -0.0515,-0.0341 -0.0664,0.006"
         id="path1262"
         style="stroke-width:0.00609944" />
      <path
         class="st5"
         d="m 130.23155,157.20135 0.071,0.70345 0.071,0.70338 c 0.003,0.0221 0.0324,0.0213 0.0302,-0.007 l -0.10626,-1.40854 c -0.0112,-0.0329 -0.0531,-0.0297 -0.0659,0.009"
         id="path1264"
         style="stroke-width:0.00609944" />
      <polygon
         class="st2"
         points="592.58,415.93 501.97,415.93 495.11,410.92 493.77,402.08 602.91,402.08 600.32,410.25 592.58,416.29 "
         id="polygon1266"
         transform="matrix(0.00609944,0,0,0.00609944,127.07179,154.55797)" />
      <path
         class="st5"
         d="m 131.18221,157.24978 0.0325,1.56987 0.0325,1.56988 c 0.002,0.0493 0.0312,0.0509 0.0306,-0.0133 l -0.0292,-3.13945 c -0.009,-0.0744 -0.0515,-0.0719 -0.0664,0.013"
         id="path1268"
         style="stroke-width:0.00609944" />
      <path
         class="st5"
         d="m 131.03381,157.24947 0.071,1.58506 0.071,1.58507 c 0.003,0.0498 0.0324,0.0479 0.0302,-0.0168 l -0.10626,-3.17384 c -0.0112,-0.0743 -0.0531,-0.067 -0.0659,0.0206"
         id="path1270"
         style="stroke-width:0.00609944" />
      <path
         class="st5"
         d="m 129.73682,157.23685 -0.0298,1.58823 -0.0299,1.58823 c -2.4e-4,0.0501 0.0346,0.0578 0.0367,-0.007 l 0.10198,-3.16866 c -0.008,-0.0768 -0.0576,-0.0832 -0.0789,-8.5e-4"
         id="path1272"
         style="stroke-width:0.00609944" />
      <path
         class="st5"
         d="m 129.56836,157.2649 0.0325,1.59232 0.0325,1.59233 c 0.002,0.0501 0.0312,0.0515 0.0306,-0.0134 l -0.0292,-3.18428 c -0.009,-0.0755 -0.0515,-0.073 -0.0664,0.0131"
         id="path1274"
         style="stroke-width:0.00609944" />
      <path
         class="st5"
         d="m 129.42002,157.2632 0.071,1.58213 0.071,1.58214 c 0.003,0.0496 0.0324,0.0478 0.0302,-0.0168 l -0.10632,-3.16793 c -0.0112,-0.0742 -0.0531,-0.067 -0.0659,0.0205"
         id="path1276"
         style="stroke-width:0.00609944" />
      <path
         class="st5"
         d="m 131.35074,157.22282 -0.0299,1.58482 -0.0207,1.58603 c -2.4e-4,0.05 0.0152,0.0564 0.0172,-0.008 l 0.11229,-3.16189 c -0.008,-0.0768 -0.0576,-0.0831 -0.0789,-8.5e-4"
         id="path1278"
         style="stroke-width:0.00609944" />
      <polygon
         class="st2"
         points="460.23,415.93 369.62,415.93 362.76,410.92 361.42,402.08 470.56,402.08 467.97,410.25 460.23,416.29 "
         id="polygon1280"
         transform="matrix(0.00609944,0,0,0.00609944,127.07179,154.55797)" />
      <polygon
         class="st2"
         points="357.4,397.39 354.75,394.44 354.79,381.82 355.84,380.92 475.78,380.92 476.2,381.36 476.15,394.67 474.01,397.39 "
         id="polygon1282"
         transform="matrix(0.00609944,0,0,0.00609944,127.07179,154.55797)" />
      <polygon
         class="st3"
         points="705.43,898.13 700.87,897.01 700.87,851.47 707.43,850.98 711.47,850.67 715.55,850.39 719.68,850.18 723.86,850.05 728.1,850.05 732.44,850.2 736.84,850.54 741.35,851.09 745.96,851.89 750.68,852.96 755.52,854.35 760.49,856.07 765.59,858.16 770.84,860.64 782.31,866.82 772.55,869.35 769.59,870.18 766.7,871.06 763.87,871.99 761.1,872.97 758.38,874 755.72,875.09 753.1,876.23 750.55,877.42 748.06,878.66 745.62,879.95 743.22,881.3 740.88,882.71 738.59,884.17 736.35,885.69 735.54,886.27 735.78,887.46 736.53,890.12 737.48,892.72 738.61,895.28 739.93,897.81 741.42,900.38 743.07,902.99 749.52,912.69 739.16,908.85 736.7,907.95 734.26,907.07 731.83,906.22 729.42,905.38 727.03,904.57 724.65,903.77 722.26,902.99 719.89,902.24 717.5,901.5 715.12,900.79 712.72,900.1 710.31,899.42 707.89,898.77 "
         id="polygon1284"
         transform="matrix(0.00609944,0,0,0.00609944,127.07179,154.55797)" />
      <path
         class="st4"
         d="m 131.3633,159.7669 c 0.13132,-0.01 0.26008,-0.0268 0.43483,0.0727 -0.10058,0.0251 -0.18585,0.0632 -0.25837,0.11687 0.008,0.0502 0.0307,0.09 0.0614,0.13504 -0.0819,-0.0303 -0.15603,-0.0555 -0.23788,-0.0753 v -0.24928 z"
         id="path1286"
         style="stroke-width:0.00609944" />
      <polygon
         class="st2"
         points="362.16,360.52 469.25,360.52 471.74,376.23 360.27,376.23 "
         id="polygon1288"
         transform="matrix(0.00609944,0,0,0.00609944,127.07179,154.55797)" />
      <polygon
         class="st3"
         points="679.53,941.23 684.43,942.44 689.18,943.72 693.79,945.08 698.29,946.52 702.68,948.04 707.01,949.64 711.27,951.32 715.51,953.1 719.72,954.96 723.92,956.91 728.15,958.96 732.41,961.1 737.34,963.68 741.77,963.61 745.4,963.44 748.89,963.17 752.23,962.79 755.44,962.31 758.51,961.72 761.46,961.03 764.28,960.24 766.97,959.35 769.54,958.35 771.99,957.26 774.33,956.08 776.55,954.8 778.67,953.43 780.67,951.96 783.81,949.39 782.48,943.6 781.02,939.52 779.14,935.65 776.86,931.99 774.21,928.54 771.24,925.27 767.99,922.19 764.46,919.3 760.7,916.56 756.74,913.98 752.59,911.55 748.28,909.26 743.85,907.08 739.31,905.03 734.69,903.09 730.01,901.25 725.32,899.51 720.63,897.85 715.96,896.28 711.35,894.78 706.82,893.35 702.39,891.99 698.1,890.69 693.97,889.42 690.03,888.2 686.31,887.02 682.84,885.87 679.64,884.75 676.75,883.66 674.2,882.59 672.03,881.55 668.6,879.57 650.5,893.33 650.35,897.31 650.4,900.24 650.58,903.24 650.91,906.33 651.37,909.45 651.93,912.59 652.6,915.68 653.37,918.73 654.23,921.68 655.16,924.51 656.18,927.19 657.25,929.7 658.4,931.98 659.61,934.05 660.92,935.85 662.79,937.88 669.19,939.03 674.46,940.1 "
         id="polygon1290"
         transform="matrix(0.00609944,0,0,0.00609944,127.07179,154.55797)" />
      <path
         class="st4"
         d="m 131.83406,160.34238 c -0.0452,-0.26521 -0.56866,-0.32626 -0.68296,-0.39964 l -0.0953,0.0725 c -0.006,0.0827 0.0295,0.21373 0.0671,0.24782 0.18329,0.0315 0.30778,0.0811 0.45026,0.15603 0.12272,7e-5 0.20464,-0.0281 0.26088,-0.0767"
         id="path1292"
         style="stroke-width:0.00609944" />
      <polygon
         class="st3"
         points="423.74,942.52 418.56,943.9 413.36,945.22 408.18,946.55 403.04,947.89 397.99,949.32 393.07,950.83 388.32,952.49 383.78,954.33 379.5,956.37 375.51,958.65 371.84,961.21 368.52,964.06 364.7,968.24 361.09,968.37 358.37,968.43 355.46,968.46 352.35,968.42 349.1,968.3 345.7,968.08 342.19,967.75 338.59,967.3 334.93,966.67 331.23,965.89 327.51,964.9 323.79,963.71 320.1,962.3 316.46,960.62 312.91,958.69 308.25,955.68 308.45,949.86 309.25,945.53 310.66,941.38 312.61,937.42 315.06,933.64 317.95,930.05 321.25,926.63 324.92,923.38 328.91,920.28 333.2,917.34 337.74,914.54 342.51,911.89 347.47,909.37 352.58,907 357.82,904.75 363.14,902.64 368.51,900.65 373.89,898.8 379.27,897.06 384.59,895.46 389.82,893.98 394.93,892.63 399.87,891.38 404.63,890.28 409.17,889.28 413.43,888.41 417.41,887.65 421.05,887.02 424.33,886.49 427.21,886.08 429.67,885.78 432.67,885.52 448.45,897.31 448.3,900.72 448.19,902.74 448.04,904.8 447.87,906.92 447.65,909.08 447.37,911.3 447.04,913.57 446.65,915.89 446.18,918.25 445.63,920.67 444.99,923.14 444.25,925.66 443.41,928.23 442.45,930.85 441.37,933.52 439.72,937.27 433.85,939.43 428.85,941.04 "
         id="polygon1294"
         transform="matrix(0.00609944,0,0,0.00609944,127.07179,154.55797)" />
      <path
         class="st4"
         d="m 128.9689,160.37818 c -0.0109,-0.26923 0.62855,-0.39433 0.73706,-0.40189 l 0.084,0.0628 c -0.003,0.0629 -0.009,0.13559 -0.0486,0.22251 -0.1509,0.0597 -0.35651,0.0669 -0.45276,0.18567 -0.0759,0.003 -0.21531,0.004 -0.31974,-0.0691"
         id="path1296"
         style="stroke-width:0.00609944" />
      <polygon
         class="st3"
         points="383.53,843.69 378.07,836.33 373.01,828.95 368.36,821.57 364.12,814.21 360.3,806.89 356.89,799.62 353.91,792.43 351.35,785.33 349.22,778.33 347.51,771.46 346.25,764.73 345.41,758.15 345.04,751.75 345.11,745.8 345,473.04 751.63,473.04 751.63,743.32 751.26,751.72 750.3,760.15 748.81,768.54 746.78,776.86 744.24,785.13 741.21,793.31 737.71,801.4 733.76,809.38 729.39,817.27 724.6,825.05 719.43,832.7 713.87,840.23 707.97,847.63 701.72,854.88 695.17,861.97 688.31,868.91 681.17,875.67 673.76,882.26 666.11,888.67 658.23,894.88 650.14,900.89 641.85,906.68 633.38,912.27 624.75,917.63 615.99,922.73 607.09,927.61 598.09,932.23 589,936.58 579.83,940.66 570.61,944.46 561.35,947.97 550.46,951.74 536.47,947.51 524.44,943.39 512.78,938.93 501.49,934.15 490.56,929.05 480.01,923.68 469.85,918.02 460.05,912.12 450.65,905.99 441.63,899.65 432.99,893.11 424.73,886.41 416.87,879.56 409.41,872.57 402.34,865.47 395.67,858.29 389.4,851.01 "
         id="polygon1298"
         transform="matrix(0.00609944,0,0,0.00609944,127.07179,154.55797)" />
      <path
         class="st5"
         d="m 129.2094,157.47649 h 2.41362 l -7e-5,1.61453 c -0.005,0.52754 -0.59995,1.04154 -1.1944,1.23702 -0.80586,-0.22757 -1.23764,-0.85123 -1.21848,-1.22092 z"
         id="path1300"
         style="stroke-width:0.00609944" />
      <polygon
         class="st3"
         points="590.17,617.56 586.54,616.31 583.06,614.75 579.7,612.97 576.41,611.02 573.22,608.99 570.1,606.93 567.05,604.91 564.05,603.01 561.14,601.28 558.32,599.76 555.62,598.54 553.05,597.64 550.64,597.1 548.36,596.92 546.11,597.09 543.72,597.64 541.17,598.55 538.47,599.8 535.67,601.34 532.75,603.13 529.77,605.09 526.71,607.15 523.59,609.28 520.39,611.38 517.12,613.39 513.76,615.23 510.28,616.85 506.64,618.15 502.83,619.01 498.91,619.31 495.02,619.01 491.24,618.16 487.63,616.91 484.16,615.34 480.8,613.56 477.53,611.61 474.34,609.59 471.21,607.54 468.16,605.54 465.16,603.64 462.25,601.91 459.44,600.41 456.73,599.19 454.16,598.3 451.74,597.76 449.48,597.58 447.23,597.77 444.83,598.32 442.26,599.24 439.56,600.48 436.74,602.01 433.83,603.78 430.85,605.72 427.79,607.76 424.68,609.85 421.49,611.93 418.22,613.93 414.86,615.76 411.39,617.38 407.78,618.7 404.01,619.6 400.16,619.96 396.15,619.79 392.09,619.32 387.9,618.6 383.62,617.64 379.29,616.49 374.98,615.13 370.74,613.63 366.62,611.99 362.7,610.23 359.02,608.36 355.63,606.38 352.57,604.28 349.88,602.04 347.59,599.52 345.8,596.5 345.12,593.35 345,473.04 751.64,473.04 751.63,590.81 750.85,593.86 748.96,596.69 746.65,599.03 743.97,601.17 740.91,603.23 737.5,605.24 733.8,607.19 729.85,609.06 725.73,610.85 721.48,612.49 717.17,613.99 712.87,615.3 708.63,616.39 704.5,617.23 700.52,617.78 696.66,617.99 692.82,617.69 689.04,616.84 685.43,615.59 681.96,614.03 678.6,612.25 675.32,610.3 672.13,608.27 669.01,606.22 665.95,604.22 662.96,602.32 660.05,600.59 657.23,599.09 654.54,597.88 651.96,596.98 649.54,596.44 647.29,596.26 645.05,596.45 642.65,597.01 640.09,597.94 637.38,599.2 634.57,600.75 631.65,602.54 628.67,604.49 625.61,606.56 622.48,608.68 619.28,610.76 616.01,612.77 612.64,614.6 609.16,616.21 605.53,617.49 601.73,618.35 597.84,618.65 593.96,618.38 "
         id="polygon1302"
         transform="matrix(0.00609944,0,0,0.00609944,127.07179,154.55797)" />
      <path
         class="st2"
         d="m 129.2094,157.47649 h 2.41362 l -7e-5,0.68088 c -3.1e-4,0.0455 -0.2011,0.13608 -0.30162,0.13657 -0.10052,-6e-5 -0.2011,-0.13254 -0.30162,-0.1326 -0.10052,4.9e-4 -0.2011,0.13699 -0.30162,0.13657 -0.10052,8.5e-4 -0.2011,-0.13255 -0.30161,-0.13261 -0.10052,-4.2e-4 -0.2011,0.13706 -0.30162,0.13657 -0.10052,-6e-5 -0.2011,-0.13254 -0.30162,-0.1326 -0.10052,4.9e-4 -0.2011,0.13492 -0.30162,0.13656 -0.1068,-3.6e-4 -0.30125,-0.0779 -0.30161,-0.1326 z"
         id="path1304"
         style="stroke-width:0.00609944" />
      <path
         class="st5"
         d="m 130.74964,157.97738 c 0.006,0 0.0104,0.005 0.0104,0.0106 0,0.006 -0.005,0.0107 -0.0104,0.0107 -0.006,0 -0.0104,-0.005 -0.0104,-0.0107 0,-0.006 0.005,-0.0106 0.0104,-0.0106 m 0.002,0.0623 c -0.0257,-0.0226 -0.0561,-0.0321 -0.0926,-0.0243 0.0324,-0.034 0.0947,-0.0773 0.17469,-0.10046 0.0506,-0.0249 0.074,-0.0798 0.21958,-0.059 -0.0224,0.0125 -0.0426,0.0306 -0.0439,0.0543 0.0939,0.006 0.21092,0.0378 0.27728,0.064 0.0407,-0.0419 0.0448,-0.074 0.15304,-0.0744 -0.0285,0.0259 -0.067,0.0504 -0.0772,0.0876 0.0286,0.0354 0.0451,0.0808 0.0856,0.10631 -0.087,0.005 -0.11083,-0.0534 -0.16627,-0.08 -0.0516,0.0129 -0.0512,0.0301 -0.16957,0.0479 0.0162,0.0146 0.0346,0.0292 0.055,0.0417 -0.009,-1.8e-4 -0.0165,4.3e-4 -0.024,0.001 -0.0291,-0.004 -0.057,-0.0196 -0.0844,-0.0401 0.0121,0.0218 0.0281,0.0367 0.0477,0.0426 -0.0209,-4.9e-4 -0.047,-0.006 -0.0881,-0.0252 -0.099,0.0264 -0.21019,0.0239 -0.3559,-0.0546 0.0217,-0.006 0.0535,0.001 0.0891,0.0124"
         id="path1306"
         style="stroke-width:0.00609944" />
      <path
         class="st5"
         d="m 130.18879,157.71943 c 0.006,0 0.0104,0.005 0.0104,0.0106 0,0.006 -0.005,0.0106 -0.0104,0.0106 -0.006,0 -0.0104,-0.005 -0.0104,-0.0106 0,-0.006 0.005,-0.0106 0.0104,-0.0106 m 0.003,0.0616 c -0.0215,-0.022 -0.0509,-0.0323 -0.0922,-0.0252 0.0335,-0.0333 0.1,-0.0732 0.17865,-0.096 0.0506,-0.0249 0.064,-0.0756 0.20964,-0.0561 -0.0224,0.0125 -0.0383,0.0249 -0.0396,0.0486 0.0938,0.013 0.21806,0.0406 0.28869,0.0612 0.0407,-0.0419 0.0534,-0.0769 0.1559,-0.0944 -0.0286,0.0259 -0.0684,0.0717 -0.0786,0.10893 0.0285,0.0354 0.0936,0.0437 0.13541,0.0593 -0.0899,0.0378 -0.14639,-0.002 -0.2033,-0.0373 -0.0516,0.0129 -0.0769,0.0358 -0.19524,0.0537 0.0162,0.0146 0.0346,0.0292 0.055,0.0417 -0.0129,-2.5e-4 -0.0238,0.001 -0.0347,0.002 -0.0228,-0.003 -0.0461,-0.0186 -0.0695,-0.0362 0.0118,0.0194 0.0232,0.0337 0.0343,0.0371 -0.0193,-0.002 -0.0434,-0.008 -0.0789,-0.0247 -0.0994,0.0265 -0.21104,0.0239 -0.35755,-0.0554 0.026,-0.006 0.0584,0.002 0.092,0.0126"
         id="path1308"
         style="stroke-width:0.00609944" />
      <path
         class="st5"
         d="m 129.58415,157.97024 c 0.006,0 0.0104,0.005 0.0104,0.0107 0,0.006 -0.005,0.0106 -0.0104,0.0106 -0.006,0 -0.0104,-0.005 -0.0104,-0.0106 0,-0.006 0.005,-0.0107 0.0104,-0.0107 m -0.0204,0.0751 c -0.0256,-0.0211 -0.0547,-0.0329 -0.091,-0.0245 0.031,-0.034 0.0865,-0.075 0.16853,-0.0988 0.0506,-0.0249 0.074,-0.0799 0.21958,-0.059 -0.0224,0.0125 -0.0426,0.0306 -0.0439,0.0543 0.0938,0.006 0.21092,0.0377 0.27728,0.0639 0.0407,-0.0418 0.0619,-0.0811 0.17018,-0.0815 -0.0286,0.0259 -0.0755,0.0618 -0.0944,0.0947 0.0285,0.0354 0.0721,0.0707 0.11259,0.0964 -0.087,0.005 -0.12937,-0.0406 -0.18475,-0.0672 -0.0515,0.0129 -0.0597,0.0273 -0.1781,0.0451 0.0162,0.0146 0.0346,0.0292 0.055,0.0417 -0.0136,-3.1e-4 -0.0249,10e-4 -0.0365,0.002 -0.0167,-0.002 -0.041,-0.0157 -0.0727,-0.041 0.0118,0.0217 0.0269,0.0362 0.0459,0.0421 -0.0204,-8e-4 -0.0459,-0.006 -0.0856,-0.0251 -0.0984,0.0262 -0.2008,0.0198 -0.3448,-0.0574 0.0241,-0.003 0.0527,0.004 0.0826,0.0138"
         id="path1310"
         style="stroke-width:0.00609944" />
      <polygon
         class="st3"
         points="718.66,957.56 726.1,957.78 733.19,957.82 739.93,957.65 746.26,957.27 752.14,956.65 757.55,955.77 762.45,954.63 766.79,953.24 770.54,951.57 773.67,949.65 776.17,947.49 781.46,940.73 783.72,948.08 784.33,950.57 784.81,953.1 785.11,955.69 785.26,958.3 785.22,960.95 784.99,963.63 784.55,966.4 782.29,974.34 779.57,981.41 776.39,987.68 772.75,993.19 768.67,997.96 764.15,1002.03 759.23,1005.4 753.94,1008.12 748.31,1010.24 742.35,1011.79 736.09,1012.84 729.54,1013.43 722.7,1013.6 715.58,1013.41 708.2,1012.9 700.54,1012.13 692.65,1011.11 684.5,1009.91 676.12,1008.56 667.5,1007.11 658.67,1005.59 649.63,1004.06 640.38,1002.54 630.95,1001.08 621.33,999.71 611.55,998.49 601.61,997.46 591.52,996.64 581.28,996.09 570.92,995.85 560.45,995.95 549.68,996.45 540.35,996.06 531.12,996.12 521.83,996.57 512.49,997.36 503.14,998.45 493.77,999.8 484.44,1001.35 475.12,1003.07 465.87,1004.9 456.69,1006.81 447.6,1008.73 438.63,1010.65 429.78,1012.48 421.08,1014.21 412.54,1015.77 404.18,1017.15 396.02,1018.24 388.08,1019.05 380.37,1019.49 372.89,1019.55 365.69,1019.15 358.75,1018.24 352.11,1016.77 345.79,1014.7 339.82,1011.94 334.24,1008.46 329.08,1004.23 324.37,999.19 320.16,993.33 316.45,986.63 313.26,979.02 310.63,970.58 310.01,968.48 309.48,966.32 309.04,964.12 308.7,961.92 308.48,959.73 308.39,957.56 308.47,955.43 309.2,949.35 316.69,953.8 320.72,955.76 325.01,957.44 329.57,958.87 334.4,960.03 339.47,960.95 344.82,961.64 350.4,962.1 356.25,962.36 362.32,962.42 368.64,962.29 375.18,962 381.97,961.55 388.97,960.96 396.19,960.24 403.62,959.4 411.27,958.45 419.12,957.42 427.17,956.31 435.43,955.15 443.87,953.93 452.51,952.69 461.33,951.42 470.34,950.16 479.52,948.89 488.88,947.66 498.41,946.47 508.11,945.33 517.98,944.25 528,943.26 538.18,942.36 548.62,941.56 556.21,941.72 563.98,942.06 572.01,942.54 580.28,943.18 588.74,943.93 597.37,944.8 606.13,945.75 615.01,946.76 623.97,947.82 632.97,948.92 641.99,950.03 650.99,951.14 659.94,952.21 668.82,953.25 677.58,954.23 686.2,955.13 694.66,955.92 702.9,956.61 710.92,957.16 "
         id="polygon1312"
         transform="matrix(0.00609944,0,0,0.00609944,127.07179,154.55797)" />
      <path
         class="st4"
         d="m 128.97122,160.37586 c 0.25008,0.16475 0.77243,-0.0107 1.44734,-0.0582 0.4721,0.004 1.28899,0.21213 1.41318,0.0136 0.0124,0.0368 0.0171,0.0769 0.009,0.11759 -0.12846,0.52797 -0.71742,0.1248 -1.41635,0.17024 -0.60178,-0.04 -1.29059,0.42574 -1.4421,-0.1459 -0.0102,-0.0324 -0.0162,-0.0688 -0.0112,-0.0974"
         id="path1314"
         style="stroke-width:0.00609944" />
      <path
         class="st5"
         d="m 131.44869,160.49517 0.0455,0.0132 0.003,0.0978 0.032,-0.0877 0.0453,0.0132 -0.0238,0.15243 -0.0282,-0.008 0.0182,-0.11626 -0.04,0.10991 -0.0256,-0.007 -0.004,-0.12254 -0.0182,0.11626 -0.0283,-0.008 z m -0.0769,0.0825 -0.006,-0.0581 -0.0188,0.0526 z m 0.003,0.0349 -0.0398,-0.009 -0.008,0.0243 -0.0357,-0.008 0.0604,-0.1448 0.038,0.008 0.0246,0.16309 -0.0365,-0.008 z m -0.11729,-0.1548 0.0351,0.007 -0.0159,0.15431 -0.0351,-0.007 z m -0.12668,-0.0196 0.10668,0.0178 -0.003,0.0382 -0.0359,-0.006 -0.0105,0.11644 -0.0351,-0.006 0.0105,-0.1165 -0.0357,-0.006 z m -0.12724,-0.015 0.0329,0.004 0.0374,0.091 0.005,-0.0859 0.0332,0.004 -0.01,0.15529 -0.0332,-0.004 -0.0373,-0.0903 -0.005,0.0853 -0.0331,-0.004 z m -0.11772,-0.0115 0.0945,0.009 -0.002,0.0332 -0.0591,-0.006 -0.001,0.0247 0.0548,0.005 -0.002,0.0317 -0.0548,-0.005 -0.002,0.0307 0.0608,0.006 -0.002,0.0352 -0.0962,-0.009 z m -0.0626,-0.002 0.0353,0.002 -0.006,0.15565 -0.0354,-0.002 z m -0.0841,0.0601 0.009,6.7e-4 c 0.007,4.2e-4 0.0117,-8e-4 0.0146,-0.004 0.003,-0.003 0.004,-0.007 0.005,-0.012 2.5e-4,-0.005 -8.5e-4,-0.009 -0.003,-0.0127 -0.002,-0.004 -0.007,-0.006 -0.0132,-0.006 l -0.0101,-6.7e-4 z m -0.0329,-0.0689 0.0587,0.004 c 0.0127,9.2e-4 0.0221,0.006 0.0282,0.0145 0.006,0.009 0.009,0.0207 0.008,0.036 -6.1e-4,0.0158 -0.005,0.0278 -0.0118,0.0361 -0.007,0.008 -0.0181,0.012 -0.0323,0.011 l -0.0193,-10e-4 -0.002,0.0578 -0.0354,-0.003 z m -0.0657,0.0946 -0.0112,-0.0566 -0.014,0.0554 z m 0.007,0.034 -0.0403,-0.002 -0.006,0.0254 -0.036,-0.002 0.047,-0.15365 0.0386,0.002 0.039,0.15785 -0.0369,-0.002 z m -0.19189,-0.0296 0.0337,-0.002 c 6.7e-4,0.007 0.002,0.0132 0.004,0.0171 0.004,0.006 0.009,0.01 0.0155,0.01 0.005,1.2e-4 0.009,-0.001 0.0117,-0.005 0.003,-0.003 0.004,-0.007 0.004,-0.0111 7e-5,-0.004 -0.001,-0.008 -0.004,-0.0109 -0.003,-0.003 -0.009,-0.006 -0.018,-0.009 -0.0154,-0.005 -0.0263,-0.0117 -0.0329,-0.0197 -0.007,-0.008 -0.01,-0.0181 -0.01,-0.0303 7e-5,-0.008 0.002,-0.0156 0.005,-0.0226 0.004,-0.007 0.009,-0.0125 0.0156,-0.0164 0.007,-0.004 0.0163,-0.006 0.0282,-0.005 0.0146,3.1e-4 0.0257,0.004 0.0333,0.0119 0.008,0.008 0.012,0.0195 0.0133,0.0357 l -0.0334,0.002 c -7.9e-4,-0.007 -0.003,-0.0121 -0.005,-0.0154 -0.003,-0.003 -0.007,-0.005 -0.0117,-0.005 -0.004,-7e-5 -0.007,9.7e-4 -0.009,0.003 -0.002,0.002 -0.003,0.005 -0.003,0.009 -7e-5,0.002 7.9e-4,0.005 0.002,0.007 0.002,0.002 0.006,0.004 0.0118,0.006 0.0154,0.005 0.0264,0.01 0.033,0.0146 0.007,0.005 0.0114,0.0107 0.0144,0.0176 0.003,0.007 0.004,0.0146 0.004,0.0232 -1.8e-4,0.01 -0.002,0.0192 -0.006,0.0275 -0.004,0.008 -0.01,0.0146 -0.0173,0.0187 -0.007,0.004 -0.0165,0.006 -0.0276,0.006 -0.0195,-4.2e-4 -0.0328,-0.006 -0.0402,-0.0163 -0.007,-0.0105 -0.0114,-0.0236 -0.0123,-0.0393 m -0.13779,-0.0681 0.001,0.0851 0.009,-2.4e-4 c 0.007,-1.8e-4 0.0126,-0.001 0.0157,-0.004 0.003,-0.002 0.005,-0.006 0.007,-0.0119 0.002,-0.006 0.002,-0.0146 0.002,-0.0271 -1.8e-4,-0.0165 -0.002,-0.0278 -0.006,-0.0338 -0.004,-0.006 -0.0107,-0.009 -0.0198,-0.009 z m -0.0357,-0.0345 0.0525,-0.001 c 0.0104,-3.1e-4 0.0187,0.002 0.0251,0.005 0.006,0.004 0.0118,0.009 0.016,0.0161 0.004,0.007 0.007,0.0153 0.009,0.0248 0.002,0.009 0.003,0.0195 0.003,0.0301 1.9e-4,0.0166 -9.7e-4,0.0296 -0.004,0.0388 -0.003,0.009 -0.006,0.0171 -0.0113,0.0234 -0.005,0.006 -0.0101,0.0106 -0.0157,0.0128 -0.008,0.003 -0.0147,0.005 -0.021,0.005 l -0.0525,0.001 z m -0.0614,0.0976 -0.0141,-0.0555 -0.0111,0.0566 z m 0.008,0.0333 -0.0403,0.002 -0.005,0.026 -0.0361,0.002 0.039,-0.15779 0.0385,-0.002 0.047,0.1537 -0.037,0.002 z m -0.18665,-0.0264 -0.0148,-0.055 -0.0104,0.0568 z m 0.009,0.0331 -0.0403,0.003 -0.005,0.0261 -0.036,0.003 0.037,-0.1587 0.0385,-0.003 0.049,0.15255 -0.037,0.003 z m -0.13809,-0.12083 0.0353,-0.003 0.008,0.15542 -0.0353,0.003 z m -0.12473,0.0118 0.10717,-0.0102 0.002,0.0384 -0.036,0.003 0.006,0.11705 -0.0353,0.003 -0.006,-0.11705 -0.0359,0.003 z m -0.12894,0.0166 0.0328,-0.005 0.0495,0.0795 -0.007,-0.0857 0.0331,-0.005 0.012,0.15504 -0.0331,0.005 -0.0492,-0.079 0.007,0.0851 -0.0331,0.005 z m -0.11614,0.0175 0.094,-0.0157 0.003,0.033 -0.0588,0.01 0.002,0.0246 0.0546,-0.009 0.003,0.0315 -0.0546,0.009 0.003,0.0304 0.0606,-0.0101 0.003,0.0351 -0.0957,0.016 z m -0.0647,0.0129 0.0349,-0.007 0.0179,0.15395 -0.035,0.008 z m -0.0393,0.0993 0.0321,0.005 c -5.5e-4,0.0121 -0.002,0.0226 -0.006,0.0315 -0.003,0.009 -0.008,0.016 -0.0142,0.0216 -0.006,0.006 -0.014,0.01 -0.0241,0.012 -0.0123,0.003 -0.0226,0.003 -0.0309,-6e-5 -0.008,-0.003 -0.0162,-0.01 -0.0234,-0.0208 -0.007,-0.0109 -0.0121,-0.0258 -0.0146,-0.0448 -0.003,-0.0254 -8.6e-4,-0.0462 0.007,-0.0621 0.008,-0.016 0.0213,-0.0263 0.0394,-0.0306 0.0142,-0.003 0.0259,-0.002 0.035,0.004 0.009,0.006 0.0167,0.0165 0.0228,0.0317 l -0.0295,0.0167 c -0.002,-0.004 -0.003,-0.008 -0.005,-0.01 -0.002,-0.003 -0.005,-0.005 -0.008,-0.007 -0.003,-0.001 -0.006,-0.002 -0.01,-6.1e-4 -0.008,0.002 -0.0134,0.008 -0.0165,0.0173 -0.002,0.007 -0.003,0.0177 -9.2e-4,0.0315 0.002,0.0171 0.006,0.0282 0.0102,0.0336 0.005,0.005 0.0104,0.007 0.0172,0.006 0.007,-0.002 0.0113,-0.005 0.0141,-0.0113 0.003,-0.006 0.004,-0.0138 0.005,-0.0239 m -0.19372,0.0664 0.0323,-0.0131 c 0.002,0.007 0.004,0.0121 0.007,0.0152 0.005,0.005 0.0101,0.006 0.0167,0.004 0.005,-0.002 0.008,-0.004 0.0106,-0.008 0.002,-0.004 0.003,-0.008 0.002,-0.0121 -6.7e-4,-0.004 -0.002,-0.007 -0.006,-0.009 -0.003,-0.002 -0.009,-0.003 -0.0191,-0.003 -0.0159,1.1e-4 -0.0277,-0.003 -0.0354,-0.008 -0.008,-0.006 -0.0126,-0.0143 -0.0146,-0.0262 -10e-4,-0.008 -9.7e-4,-0.0157 0.001,-0.0237 0.002,-0.008 0.006,-0.015 0.0122,-0.0211 0.006,-0.006 0.0148,-0.0109 0.0264,-0.0146 0.0142,-0.004 0.0257,-0.004 0.0344,6.1e-4 0.009,0.005 0.0151,0.0149 0.0191,0.0302 l -0.032,0.0128 c -0.002,-0.007 -0.005,-0.011 -0.008,-0.0132 -0.003,-0.002 -0.007,-0.003 -0.0122,-10e-4 -0.004,10e-4 -0.007,0.003 -0.008,0.006 -0.002,0.003 -0.002,0.006 -0.002,0.009 3.7e-4,0.002 0.002,0.004 0.004,0.006 0.002,0.001 0.006,0.002 0.0125,0.002 0.0159,-3.1e-4 0.0274,8.5e-4 0.0346,0.003 0.007,0.002 0.013,0.007 0.0171,0.0124 0.004,0.006 0.007,0.0128 0.008,0.0211 0.002,0.01 0.001,0.0193 -0.001,0.0288 -0.003,0.009 -0.007,0.0174 -0.0134,0.0239 -0.006,0.006 -0.015,0.0114 -0.0258,0.0148 -0.019,0.006 -0.0329,0.005 -0.0418,-0.003 -0.009,-0.008 -0.0153,-0.019 -0.0189,-0.034"
         id="path1316"
         style="stroke-width:0.00609944" />
      <path
         class="st2"
         d="m 130.53469,158.9858 -0.0753,1.00787 c -0.0173,0.0424 -0.0359,0.0454 -0.0568,0.008 l -0.0991,-1.01562 z"
         id="path1318"
         style="stroke-width:0.00609944" />
      <polygon
         class="st2"
         points="522.29,716.07 521.1,714.74 521.11,709.08 521.59,708.67 575.41,708.67 575.6,708.87 575.58,714.84 574.62,716.07 "
         id="polygon1320"
         transform="matrix(0.00609944,0,0,0.00609944,127.07179,154.55797)" />
      <polygon
         class="st2"
         points="524.42,699.52 572.48,699.52 573.6,706.56 523.58,706.56 "
         id="polygon1322"
         transform="matrix(0.00609944,0,0,0.00609944,127.07179,154.55797)" />
      <path
         class="st5"
         d="m 130.47711,159.01727 -0.0134,0.35524 -0.0134,0.35529 c -7e-5,0.0112 0.0155,0.0129 0.0165,-0.002 l 0.0457,-0.70881 c -0.004,-0.0171 -0.0259,-0.0186 -0.0354,-1.3e-4"
         id="path1324"
         style="stroke-width:0.00609944" />
      <path
         class="st5"
         d="m 130.40148,159.02728 0.0146,0.33431 0.0146,0.33431 c 7.4e-4,0.0105 0.014,0.0108 0.0137,-0.003 l -0.0131,-0.66868 c -0.004,-0.0157 -0.0231,-0.0152 -0.0298,0.003"
         id="path1326"
         style="stroke-width:0.00609944" />
      <path
         class="st5"
         d="m 130.33487,159.02411 0.0319,0.31564 0.0318,0.31571 c 0.001,0.01 0.0146,0.01 0.0135,-0.003 l -0.0477,-0.63214 c -0.005,-0.0148 -0.0239,-0.0133 -0.0296,0.004"
         id="path1328"
         style="stroke-width:0.00609944" />
      <polygon
         class="st2"
         points="568.44,724.39 527.77,724.39 524.69,722.14 524.1,718.17 573.07,718.17 571.91,721.84 568.44,724.55 "
         id="polygon1330"
         transform="matrix(0.00609944,0,0,0.00609944,127.07179,154.55797)" />
      <path
         class="st0"
         d="m 129.99953,156.52962 c -0.0173,-0.095 -0.072,-0.17603 -0.11961,-0.25832 -0.0475,-0.082 -0.0908,-0.16682 -0.11297,-0.25941 -0.0135,-0.0565 -0.0193,-0.11509 -0.0281,-0.17237 -0.0351,0.0457 -0.0309,0.10735 -0.0343,0.16201 -0.002,0.0322 -0.004,0.0644 -0.007,0.0966 -0.0345,-0.0372 -0.0441,-0.0963 -0.0536,-0.14474 -0.0118,-0.0595 -0.0217,-0.10936 -0.0607,-0.15871 -0.006,0.0754 -0.008,0.14791 -0.0395,0.21806 -0.0296,0.0665 -0.0764,0.12412 -0.12534,0.17731 -0.0859,0.0934 -0.23489,0.19976 -0.23191,0.34047 0.002,0.0886 0.0687,0.15541 0.1287,0.21238 h 0.5803 c 0.0667,-0.0591 0.11101,-0.12071 0.10376,-0.21329"
         id="path1332"
         style="stroke-width:0.00609944" />
      <path
         class="st1"
         d="m 129.71151,156.12974 v 0 c -0.004,0.0835 -0.0123,0.16523 -0.0404,0.24257 -0.009,0.0287 -0.0355,0.0841 -0.063,0.11638 -0.0281,0.0345 -0.0627,0.0606 -0.10546,0.0762 -0.0315,0.009 -0.0601,0.0119 -0.085,0.005 -0.0121,-0.003 -0.0234,-0.0101 -0.0309,-0.0203 -0.0119,-0.0161 -0.0162,-0.0376 -0.0113,-0.0668 0.006,-0.0255 0.0287,-0.0379 0.0534,-0.0281 0.0186,0.007 0.0378,0.0126 0.0574,0.0165 0.0417,0.008 0.079,5.5e-4 0.11174,-0.0237 0,0 0.0265,-0.0195 0.0507,-0.0687 0.0127,-0.025 0.0227,-0.0515 0.0292,-0.0789 0.0133,-0.0562 0.0204,-0.11491 0.0267,-0.17329 -0.0833,-0.0596 -0.0709,-0.23239 -0.11077,-0.28911 0.0242,0.42891 -0.65837,0.54602 -0.27161,0.88875 h 0.56737 c 0.28357,-0.23251 -0.15608,-0.43538 -0.15529,-0.84953 -0.01,0.008 -0.0126,0.16273 -0.0228,0.25307"
         id="path1334"
         style="stroke-width:0.00609944" />
      <path
         class="st0"
         d="m 130.54128,158.61392 c -0.0214,-0.037 -0.0409,-0.0752 -0.0509,-0.11699 -0.006,-0.0254 -0.009,-0.0519 -0.0126,-0.0777 -0.0159,0.0206 -0.014,0.0484 -0.0155,0.073 -9.2e-4,0.0145 -0.002,0.029 -0.003,0.0436 -0.0155,-0.0168 -0.0199,-0.0434 -0.0242,-0.0652 -0.005,-0.0268 -0.01,-0.0493 -0.0274,-0.0716 -0.003,0.034 -0.004,0.0667 -0.0178,0.0983 -0.0133,0.03 -0.0345,0.0559 -0.0565,0.0799 -0.0387,0.0421 -0.10589,0.09 -0.10461,0.1534 8.6e-4,0.04 0.031,0.0701 0.0581,0.0958 h 0.26161 c 0.0301,-0.0267 0.0501,-0.0544 0.0468,-0.0962 -0.008,-0.0428 -0.0325,-0.0792 -0.0539,-0.11631"
         id="path1336"
         style="stroke-width:0.00609944" />
      <path
         class="st1"
         d="m 130.46534,158.55012 v 0 c -0.002,0.0376 -0.006,0.0745 -0.0182,0.1093 -0.004,0.0129 -0.016,0.0379 -0.0284,0.0524 -0.0126,0.0156 -0.0282,0.0273 -0.0476,0.0344 -0.0142,0.004 -0.0271,0.005 -0.0383,0.002 -0.005,-0.002 -0.0106,-0.005 -0.014,-0.009 -0.005,-0.007 -0.007,-0.017 -0.005,-0.0301 0.003,-0.0115 0.0129,-0.0171 0.024,-0.0126 0.008,0.003 0.0171,0.006 0.0259,0.007 0.0188,0.004 0.0356,3e-4 0.0504,-0.0107 0,0 0.012,-0.009 0.0229,-0.0309 0.006,-0.0113 0.0102,-0.0232 0.0131,-0.0356 0.006,-0.0254 0.009,-0.0518 0.012,-0.0781 -0.0375,-0.0269 -0.032,-0.10472 -0.0499,-0.13034 0.0109,0.19335 -0.29673,0.24611 -0.12247,0.40061 h 0.25581 c 0.12778,-0.10479 -0.0704,-0.19622 -0.07,-0.38298 -0.004,0.003 -0.006,0.0734 -0.0102,0.11412"
         id="path1338"
         style="stroke-width:0.00609944" />
      <rect
         x="129.99501"
         y="157.95207"
         class="st6"
         width="0.86288846"
         height="1.7846975"
         id="rect1342"
         style="stroke-width:0.00609944" />
    </g>
  </g>
  <style
     type="text/css"
     id="style1228">
	.st0{fill:#231F20;}
	.st1{fill:#ED1C24;}
	.st2{fill-rule:evenodd;clip-rule:evenodd;fill:#0095DA;}
	.st3{fill-rule:evenodd;clip-rule:evenodd;fill:#231F20;}
	.st4{fill-rule:evenodd;clip-rule:evenodd;fill:#ED1C24;}
	.st5{fill-rule:evenodd;clip-rule:evenodd;fill:#FFFFFF;}
	.st6{fill:none;}
</style>
</svg>
